<mxfile host="app.diagrams.net" modified="2023-11-11T13:29:05.133Z" agent="Mozilla/5.0 (Windows NT 10.0; Win64; x64) AppleWebKit/537.36 (KHTML, like Gecko) Chrome/119.0.0.0 Safari/537.36" etag="79p7t7mzcsf4FYFZtZd6" version="22.1.0" type="github">
  <diagram name="Page-1" id="Z5g9E34FdIhuN_dx8226">
    <mxGraphModel dx="880" dy="438" grid="1" gridSize="10" guides="1" tooltips="1" connect="1" arrows="1" fold="1" page="1" pageScale="1" pageWidth="850" pageHeight="1100" math="0" shadow="0">
      <root>
        <mxCell id="0" />
        <mxCell id="1" parent="0" />
        <mxCell id="wBeUq93BCxYl6VkZX4B5-1" value="" style="ellipse;whiteSpace=wrap;html=1;" vertex="1" parent="1">
          <mxGeometry x="365" y="220" width="120" height="80" as="geometry" />
        </mxCell>
        <mxCell id="wBeUq93BCxYl6VkZX4B5-2" value="Forest Enumeration Engine" style="text;html=1;strokeColor=none;fillColor=none;align=center;verticalAlign=middle;whiteSpace=wrap;rounded=0;" vertex="1" parent="1">
          <mxGeometry x="395" y="245" width="60" height="30" as="geometry" />
        </mxCell>
        <mxCell id="wBeUq93BCxYl6VkZX4B5-3" value="User" style="rounded=0;whiteSpace=wrap;html=1;" vertex="1" parent="1">
          <mxGeometry x="375" y="120" width="100" height="40" as="geometry" />
        </mxCell>
        <mxCell id="wBeUq93BCxYl6VkZX4B5-4" value="" style="curved=1;endArrow=classic;html=1;rounded=0;exitX=0;exitY=0.5;exitDx=0;exitDy=0;entryX=0;entryY=0.5;entryDx=0;entryDy=0;" edge="1" parent="1" source="wBeUq93BCxYl6VkZX4B5-3" target="wBeUq93BCxYl6VkZX4B5-1">
          <mxGeometry width="50" height="50" relative="1" as="geometry">
            <mxPoint x="400" y="260" as="sourcePoint" />
            <mxPoint x="450" y="210" as="targetPoint" />
            <Array as="points">
              <mxPoint x="350" y="170" />
              <mxPoint x="340" y="190" />
              <mxPoint x="340" y="220" />
            </Array>
          </mxGeometry>
        </mxCell>
        <mxCell id="wBeUq93BCxYl6VkZX4B5-5" value="" style="curved=1;endArrow=classic;html=1;rounded=0;entryX=1;entryY=0.5;entryDx=0;entryDy=0;exitX=1;exitY=0.5;exitDx=0;exitDy=0;" edge="1" parent="1" source="wBeUq93BCxYl6VkZX4B5-1" target="wBeUq93BCxYl6VkZX4B5-3">
          <mxGeometry width="50" height="50" relative="1" as="geometry">
            <mxPoint x="520" y="220" as="sourcePoint" />
            <mxPoint x="570" y="170" as="targetPoint" />
            <Array as="points">
              <mxPoint x="510" y="230" />
              <mxPoint x="510" y="170" />
            </Array>
          </mxGeometry>
        </mxCell>
      </root>
    </mxGraphModel>
  </diagram>
</mxfile>
